<svg xmlns="http://www.w3.org/2000/svg" width="144" height="23" fill="none"><path fill="#B92B5D" d="M20.683 11.77q0 4.594-3.151 7.807l2.349 2.432-1.032.991-2.406-2.462q-2.721 2.072-6.102 2.072-4.296 0-7.333-3.153Q0 16.274 0 11.77t3.008-7.656Q6.044.93 10.34.93t7.305 3.183q3.037 3.152 3.037 7.656M10.34 21.078q2.779 0 5.042-1.651l-4.44-4.594 1.031-.991 4.498 4.654q2.692-2.762 2.692-6.726 0-3.873-2.578-6.575-2.577-2.733-6.245-2.733-3.666 0-6.245 2.733Q1.52 7.897 1.518 11.77t2.578 6.606q2.579 2.702 6.245 2.702M36.908 20.598q-2.006 2.012-5.328 2.012t-5.328-2.012q-2.005-2.012-2.005-5.345V1.261h1.518v13.992q0 2.643 1.518 4.234 1.518 1.59 4.297 1.591t4.297-1.591q1.547-1.591 1.547-4.234V1.261h1.518v13.992q0 3.333-2.034 5.345M43.64 1.261h1.518V22.28H43.64zM50.56 20.778h11.115v1.501H48.87v-1.5L59.698 2.761H49.156v-1.5h12.232v1.5zM84.977 1.261V22.28h-5.73V12.041l-4.469 7.866h-.515l-4.469-7.866v10.238h-5.73V1.261h5.73l4.727 8.558 4.726-8.558zM97.325 7.266h5.3V22.28h-5.3v-1.35q-1.375 1.77-3.838 1.77-2.894 0-4.727-2.251t-1.833-5.675 1.833-5.675 4.727-2.252q2.463 0 3.838 1.771zm-4.411 9.519q.716.81 1.862.81t1.833-.81q.716-.811.716-2.012 0-1.2-.716-2.012-.688-.81-1.833-.81t-1.862.81q-.688.81-.688 2.012 0 1.2.688 2.012M114.068 6.846q2.35 0 3.752 1.711 1.433 1.682 1.433 5.045v8.677h-5.3v-8.077q0-2.01-1.776-2.011-.945 0-1.461.63-.487.63-.487 1.742v7.716h-5.3V7.266h5.3v1.472q1.318-1.892 3.839-1.892M124.071 6.125q-1.203 0-2.091-.9-.86-.932-.86-2.162 0-1.232.86-2.132.888-.93 2.091-.931 1.174 0 2.034.93.888.901.888 2.133 0 1.23-.888 2.162-.86.9-2.034.9m-2.664 16.154V7.266h5.299V22.28zM138.7 7.266h5.3V22.28h-5.3v-1.35q-1.375 1.77-3.838 1.77-2.894 0-4.727-2.251t-1.833-5.675 1.833-5.675 4.727-2.252q2.463 0 3.838 1.771zm-4.411 9.519q.716.81 1.862.81t1.833-.81q.716-.811.716-2.012 0-1.2-.716-2.012-.687-.81-1.833-.81t-1.862.81q-.687.81-.688 2.012 0 1.2.688 2.012"/></svg>